<?xml version="1.0" encoding="UTF-8" standalone="no"?><svg xmlns="http://www.w3.org/2000/svg" version="1.1" width="512" height="512" viewBox="208 262 555 499">
<g id="color_1" fill="#2C2B2C" stroke="#2C2B2C" stroke-width="2.0" stroke-linejoin="round" vector-effect="non-scaling-stroke">
<path d="M366.00,642.00 L366.00,643.00 L365.00,644.00 L360.00,644.00 L360.00,647.00 L361.00,647.00 L362.00,648.00 L362.00,651.00 L363.00,651.00 L364.00,652.00 L364.00,653.00 L367.00,653.00 L368.00,654.00 L368.00,655.00 L367.00,656.00 L366.00,656.00 L366.00,661.00 L367.00,661.00 L367.00,660.00 L368.00,659.00 L371.00,659.00 L371.00,654.00 L372.00,653.00 L375.00,653.00 L375.00,652.00 L374.00,652.00 L373.00,651.00 L373.00,650.00 L372.00,650.00 L371.00,649.00 L371.00,648.00 L372.00,647.00 L373.00,647.00 L373.00,644.00 L372.00,644.00 L371.00,643.00 L371.00,642.00 L366.00,642.00 Z M344.00,640.00 L344.00,641.00 L343.00,642.00 L342.00,642.00 L342.00,643.00 L343.00,643.00 L344.00,644.00 L344.00,645.00 L347.00,645.00 L347.00,640.00 L344.00,640.00 Z M330.00,630.00 L330.00,637.00 L331.00,637.00 L332.00,638.00 L332.00,639.00 L335.00,639.00 L335.00,638.00 L336.00,637.00 L337.00,637.00 L337.00,634.00 L336.00,634.00 L335.00,633.00 L335.00,632.00 L334.00,632.00 L333.00,631.00 L333.00,630.00 L330.00,630.00 Z M278.00,628.00 L278.00,633.00 L283.00,633.00 L283.00,632.00 L284.00,631.00 L285.00,631.00 L285.00,630.00 L284.00,630.00 L283.00,629.00 L283.00,628.00 L278.00,628.00 Z M346.00,612.00 L346.00,617.00 L349.00,617.00 L350.00,618.00 L350.00,619.00 L355.00,619.00 L356.00,620.00 L356.00,621.00 L357.00,621.00 L358.00,622.00 L358.00,625.00 L357.00,626.00 L356.00,626.00 L356.00,631.00 L357.00,631.00 L358.00,632.00 L358.00,633.00 L359.00,633.00 L359.00,632.00 L360.00,631.00 L361.00,631.00 L361.00,630.00 L362.00,629.00 L363.00,629.00 L363.00,624.00 L362.00,624.00 L361.00,623.00 L361.00,618.00 L360.00,618.00 L359.00,617.00 L359.00,616.00 L356.00,616.00 L355.00,615.00 L355.00,614.00 L352.00,614.00 L351.00,613.00 L351.00,612.00 L346.00,612.00 Z M368.00,606.00 L368.00,609.00 L369.00,609.00 L370.00,610.00 L370.00,611.00 L371.00,611.00 L372.00,612.00 L372.00,613.00 L373.00,613.00 L374.00,614.00 L374.00,619.00 L375.00,619.00 L375.00,618.00 L376.00,617.00 L377.00,617.00 L377.00,610.00 L376.00,610.00 L375.00,609.00 L375.00,608.00 L374.00,608.00 L373.00,607.00 L373.00,606.00 L368.00,606.00 Z M348.00,598.00 L348.00,601.00 L353.00,601.00 L354.00,602.00 L354.00,603.00 L357.00,603.00 L357.00,602.00 L358.00,601.00 L367.00,601.00 L367.00,598.00 L348.00,598.00 Z M290.00,590.00 L290.00,595.00 L295.00,595.00 L295.00,592.00 L294.00,592.00 L293.00,591.00 L293.00,590.00 L290.00,590.00 Z M330.00,584.00 L330.00,585.00 L329.00,586.00 L328.00,586.00 L328.00,593.00 L329.00,593.00 L330.00,594.00 L330.00,595.00 L335.00,595.00 L335.00,590.00 L336.00,589.00 L337.00,589.00 L337.00,586.00 L336.00,586.00 L335.00,585.00 L335.00,584.00 L330.00,584.00 Z M372.00,566.00 L372.00,567.00 L371.00,568.00 L370.00,568.00 L370.00,571.00 L371.00,571.00 L372.00,572.00 L372.00,573.00 L375.00,573.00 L375.00,572.00 L376.00,571.00 L377.00,571.00 L377.00,568.00 L376.00,568.00 L375.00,567.00 L375.00,566.00 L372.00,566.00 Z M358.00,566.00 L358.00,567.00 L357.00,568.00 L356.00,568.00 L356.00,569.00 L357.00,569.00 L358.00,570.00 L358.00,573.00 L357.00,574.00 L356.00,574.00 L356.00,577.00 L355.00,578.00 L354.00,578.00 L354.00,579.00 L353.00,580.00 L352.00,580.00 L352.00,581.00 L351.00,582.00 L350.00,582.00 L350.00,583.00 L351.00,583.00 L352.00,584.00 L352.00,585.00 L353.00,585.00 L353.00,584.00 L354.00,583.00 L355.00,583.00 L355.00,582.00 L356.00,581.00 L357.00,581.00 L357.00,580.00 L358.00,579.00 L361.00,579.00 L361.00,578.00 L362.00,577.00 L365.00,577.00 L365.00,570.00 L364.00,570.00 L363.00,569.00 L363.00,568.00 L362.00,568.00 L361.00,567.00 L361.00,566.00 L358.00,566.00 Z M340.00,564.00 L340.00,565.00 L339.00,566.00 L336.00,566.00 L336.00,567.00 L335.00,568.00 L334.00,568.00 L334.00,569.00 L333.00,570.00 L332.00,570.00 L332.00,571.00 L333.00,571.00 L334.00,572.00 L334.00,573.00 L341.00,573.00 L341.00,572.00 L342.00,571.00 L343.00,571.00 L343.00,570.00 L344.00,569.00 L345.00,569.00 L345.00,568.00 L344.00,568.00 L343.00,567.00 L343.00,566.00 L342.00,566.00 L341.00,565.00 L341.00,564.00 L340.00,564.00 Z M362.00,552.00 L362.00,553.00 L361.00,554.00 L360.00,554.00 L360.00,559.00 L361.00,559.00 L362.00,560.00 L362.00,561.00 L363.00,561.00 L364.00,562.00 L364.00,563.00 L367.00,563.00 L367.00,562.00 L368.00,561.00 L369.00,561.00 L369.00,554.00 L368.00,554.00 L367.00,553.00 L367.00,552.00 L362.00,552.00 Z M310.00,536.00 L310.00,539.00 L315.00,539.00 L315.00,538.00 L314.00,538.00 L313.00,537.00 L313.00,536.00 L310.00,536.00 Z M370.00,534.00 L370.00,535.00 L369.00,536.00 L366.00,536.00 L366.00,537.00 L365.00,538.00 L364.00,538.00 L364.00,539.00 L363.00,540.00 L362.00,540.00 L361.00,539.00 L361.00,538.00 L360.00,538.00 L359.00,537.00 L359.00,536.00 L354.00,536.00 L354.00,545.00 L355.00,545.00 L356.00,546.00 L356.00,547.00 L361.00,547.00 L361.00,542.00 L362.00,541.00 L363.00,541.00 L363.00,540.00 L364.00,539.00 L367.00,539.00 L368.00,540.00 L368.00,541.00 L371.00,541.00 L371.00,540.00 L372.00,539.00 L373.00,539.00 L373.00,538.00 L374.00,537.00 L375.00,537.00 L375.00,536.00 L372.00,536.00 L371.00,535.00 L371.00,534.00 L370.00,534.00 Z M342.00,528.00 L342.00,529.00 L341.00,530.00 L340.00,530.00 L340.00,533.00 L345.00,533.00 L345.00,530.00 L344.00,530.00 L343.00,529.00 L343.00,528.00 L342.00,528.00 Z M356.00,518.00 L356.00,519.00 L355.00,520.00 L354.00,520.00 L354.00,521.00 L355.00,521.00 L356.00,522.00 L356.00,525.00 L357.00,525.00 L358.00,526.00 L358.00,527.00 L359.00,527.00 L360.00,528.00 L360.00,529.00 L365.00,529.00 L365.00,524.00 L366.00,523.00 L367.00,523.00 L367.00,522.00 L366.00,522.00 L365.00,521.00 L365.00,520.00 L364.00,520.00 L363.00,519.00 L363.00,518.00 L356.00,518.00 Z M228.00,516.00 L228.00,519.00 L233.00,519.00 L233.00,516.00 L228.00,516.00 Z M362.00,502.00 L362.00,503.00 L361.00,504.00 L360.00,504.00 L360.00,505.00 L359.00,506.00 L356.00,506.00 L356.00,507.00 L355.00,508.00 L354.00,508.00 L354.00,511.00 L363.00,511.00 L364.00,512.00 L364.00,513.00 L369.00,513.00 L369.00,508.00 L368.00,508.00 L367.00,507.00 L367.00,504.00 L366.00,504.00 L365.00,503.00 L365.00,502.00 L362.00,502.00 Z M320.00,502.00 L320.00,503.00 L319.00,504.00 L318.00,504.00 L318.00,507.00 L319.00,507.00 L320.00,508.00 L320.00,509.00 L325.00,509.00 L325.00,506.00 L324.00,506.00 L323.00,505.00 L323.00,504.00 L322.00,504.00 L321.00,503.00 L321.00,502.00 L320.00,502.00 Z M346.00,498.00 L346.00,501.00 L347.00,501.00 L348.00,502.00 L348.00,503.00 L349.00,503.00 L349.00,502.00 L350.00,501.00 L351.00,501.00 L351.00,498.00 L346.00,498.00 Z M348.00,484.00 L348.00,485.00 L347.00,486.00 L346.00,486.00 L346.00,487.00 L347.00,487.00 L348.00,488.00 L348.00,491.00 L355.00,491.00 L355.00,490.00 L356.00,489.00 L357.00,489.00 L357.00,486.00 L356.00,486.00 L355.00,485.00 L355.00,484.00 L348.00,484.00 Z M332.00,478.00 L332.00,481.00 L337.00,481.00 L337.00,478.00 L332.00,478.00 Z M318.00,478.00 L318.00,483.00 L321.00,483.00 L321.00,480.00 L320.00,480.00 L319.00,479.00 L319.00,478.00 L318.00,478.00 Z M378.00,476.00 L378.00,477.00 L377.00,478.00 L376.00,478.00 L376.00,479.00 L375.00,480.00 L374.00,480.00 L374.00,483.00 L373.00,484.00 L370.00,484.00 L369.00,483.00 L369.00,482.00 L362.00,482.00 L362.00,487.00 L363.00,487.00 L364.00,488.00 L364.00,489.00 L365.00,489.00 L366.00,490.00 L366.00,493.00 L367.00,493.00 L368.00,494.00 L368.00,499.00 L371.00,499.00 L371.00,498.00 L372.00,497.00 L375.00,497.00 L375.00,496.00 L376.00,495.00 L377.00,495.00 L377.00,492.00 L376.00,492.00 L375.00,491.00 L375.00,490.00 L374.00,490.00 L373.00,489.00 L373.00,486.00 L374.00,485.00 L383.00,485.00 L383.00,480.00 L382.00,480.00 L381.00,479.00 L381.00,478.00 L380.00,478.00 L379.00,477.00 L379.00,476.00 L378.00,476.00 Z M386.00,474.00 L386.00,479.00 L389.00,479.00 L390.00,480.00 L390.00,481.00 L395.00,481.00 L395.00,478.00 L394.00,478.00 L393.00,477.00 L393.00,476.00 L392.00,476.00 L391.00,475.00 L391.00,474.00 L386.00,474.00 Z M336.00,466.00 L336.00,467.00 L335.00,468.00 L334.00,468.00 L334.00,471.00 L337.00,471.00 L337.00,466.00 L336.00,466.00 Z M396.00,464.00 L396.00,465.00 L395.00,466.00 L394.00,466.00 L394.00,467.00 L393.00,468.00 L390.00,468.00 L390.00,471.00 L393.00,471.00 L393.00,470.00 L394.00,469.00 L399.00,469.00 L399.00,466.00 L398.00,466.00 L397.00,465.00 L397.00,464.00 L396.00,464.00 Z M364.00,464.00 L364.00,465.00 L363.00,466.00 L362.00,466.00 L362.00,469.00 L367.00,469.00 L367.00,468.00 L368.00,467.00 L371.00,467.00 L371.00,464.00 L364.00,464.00 Z M370.00,448.00 L370.00,453.00 L373.00,453.00 L373.00,452.00 L374.00,451.00 L375.00,451.00 L375.00,448.00 L370.00,448.00 Z M358.00,448.00 L358.00,451.00 L359.00,451.00 L360.00,452.00 L360.00,453.00 L361.00,453.00 L361.00,452.00 L362.00,451.00 L365.00,451.00 L365.00,450.00 L364.00,450.00 L363.00,449.00 L363.00,448.00 L358.00,448.00 Z M300.00,438.00 L300.00,439.00 L299.00,440.00 L298.00,440.00 L298.00,441.00 L299.00,441.00 L300.00,442.00 L300.00,443.00 L303.00,443.00 L303.00,438.00 L300.00,438.00 Z M382.00,434.00 L382.00,437.00 L383.00,437.00 L384.00,438.00 L384.00,439.00 L385.00,439.00 L386.00,440.00 L386.00,441.00 L387.00,441.00 L387.00,436.00 L386.00,436.00 L385.00,435.00 L385.00,434.00 L382.00,434.00 Z M372.00,426.00 L372.00,431.00 L373.00,431.00 L374.00,432.00 L374.00,437.00 L377.00,437.00 L377.00,436.00 L376.00,436.00 L375.00,435.00 L375.00,432.00 L376.00,431.00 L377.00,431.00 L377.00,428.00 L376.00,428.00 L375.00,427.00 L375.00,426.00 L372.00,426.00 Z M324.00,424.00 L324.00,429.00 L323.00,430.00 L322.00,430.00 L322.00,431.00 L323.00,431.00 L324.00,432.00 L324.00,433.00 L327.00,433.00 L327.00,432.00 L328.00,431.00 L329.00,431.00 L329.00,430.00 L330.00,429.00 L333.00,429.00 L333.00,426.00 L330.00,426.00 L329.00,425.00 L329.00,424.00 L324.00,424.00 Z M340.00,422.00 L340.00,423.00 L341.00,423.00 L342.00,424.00 L342.00,425.00 L343.00,425.00 L344.00,426.00 L344.00,427.00 L345.00,427.00 L346.00,428.00 L346.00,429.00 L349.00,429.00 L349.00,426.00 L344.00,426.00 L343.00,425.00 L343.00,422.00 L340.00,422.00 Z M360.00,420.00 L360.00,423.00 L361.00,423.00 L362.00,424.00 L362.00,425.00 L363.00,425.00 L364.00,426.00 L364.00,427.00 L365.00,427.00 L366.00,428.00 L366.00,431.00 L365.00,432.00 L364.00,432.00 L364.00,433.00 L363.00,434.00 L350.00,434.00 L350.00,437.00 L351.00,437.00 L352.00,438.00 L352.00,439.00 L355.00,439.00 L356.00,440.00 L356.00,441.00 L359.00,441.00 L359.00,440.00 L360.00,439.00 L367.00,439.00 L367.00,436.00 L368.00,435.00 L369.00,435.00 L369.00,430.00 L368.00,430.00 L367.00,429.00 L367.00,428.00 L368.00,427.00 L369.00,427.00 L369.00,424.00 L368.00,424.00 L367.00,423.00 L367.00,420.00 L360.00,420.00 Z M308.00,410.00 L308.00,411.00 L307.00,412.00 L306.00,412.00 L306.00,413.00 L307.00,413.00 L308.00,414.00 L308.00,415.00 L309.00,415.00 L309.00,414.00 L310.00,413.00 L311.00,413.00 L311.00,412.00 L310.00,412.00 L309.00,411.00 L309.00,410.00 L308.00,410.00 Z M320.00,400.00 L320.00,403.00 L321.00,403.00 L322.00,404.00 L322.00,405.00 L323.00,405.00 L323.00,404.00 L324.00,403.00 L325.00,403.00 L325.00,402.00 L324.00,402.00 L323.00,401.00 L323.00,400.00 L320.00,400.00 Z M268.00,394.00 L268.00,395.00 L267.00,396.00 L266.00,396.00 L266.00,397.00 L265.00,398.00 L264.00,398.00 L264.00,401.00 L267.00,401.00 L267.00,400.00 L268.00,399.00 L271.00,399.00 L271.00,396.00 L270.00,396.00 L269.00,395.00 L269.00,394.00 L268.00,394.00 Z M356.00,392.00 L356.00,397.00 L359.00,397.00 L359.00,392.00 L356.00,392.00 Z M388.00,390.00 L388.00,391.00 L387.00,392.00 L384.00,392.00 L384.00,393.00 L383.00,394.00 L382.00,394.00 L382.00,395.00 L381.00,396.00 L380.00,396.00 L380.00,399.00 L381.00,399.00 L382.00,400.00 L382.00,401.00 L383.00,401.00 L384.00,402.00 L384.00,403.00 L389.00,403.00 L389.00,402.00 L390.00,401.00 L391.00,401.00 L391.00,400.00 L392.00,399.00 L393.00,399.00 L393.00,396.00 L394.00,395.00 L395.00,395.00 L396.00,396.00 L396.00,399.00 L399.00,399.00 L399.00,398.00 L400.00,397.00 L401.00,397.00 L401.00,396.00 L402.00,395.00 L403.00,395.00 L403.00,394.00 L402.00,394.00 L401.00,393.00 L401.00,390.00 L398.00,390.00 L398.00,391.00 L397.00,392.00 L390.00,392.00 L389.00,391.00 L389.00,390.00 L388.00,390.00 Z M392.00,378.00 L392.00,381.00 L391.00,382.00 L390.00,382.00 L390.00,383.00 L391.00,383.00 L392.00,384.00 L392.00,385.00 L397.00,385.00 L397.00,384.00 L398.00,383.00 L399.00,383.00 L399.00,380.00 L398.00,380.00 L397.00,379.00 L397.00,378.00 L392.00,378.00 Z M356.00,378.00 L356.00,379.00 L355.00,380.00 L352.00,380.00 L352.00,381.00 L353.00,381.00 L354.00,382.00 L354.00,383.00 L357.00,383.00 L357.00,380.00 L358.00,379.00 L359.00,379.00 L359.00,378.00 L356.00,378.00 Z M382.00,372.00 L382.00,373.00 L381.00,374.00 L376.00,374.00 L376.00,375.00 L381.00,375.00 L382.00,376.00 L382.00,377.00 L385.00,377.00 L385.00,376.00 L386.00,375.00 L387.00,375.00 L387.00,372.00 L382.00,372.00 Z M392.00,362.00 L392.00,367.00 L393.00,367.00 L394.00,368.00 L394.00,369.00 L395.00,369.00 L396.00,370.00 L396.00,371.00 L397.00,371.00 L398.00,372.00 L398.00,373.00 L399.00,373.00 L400.00,374.00 L400.00,375.00 L401.00,375.00 L402.00,376.00 L402.00,377.00 L403.00,377.00 L404.00,378.00 L404.00,381.00 L409.00,381.00 L410.00,382.00 L410.00,383.00 L411.00,383.00 L411.00,382.00 L412.00,381.00 L413.00,381.00 L413.00,378.00 L412.00,378.00 L411.00,377.00 L411.00,376.00 L410.00,376.00 L409.00,375.00 L409.00,372.00 L408.00,372.00 L407.00,371.00 L407.00,370.00 L406.00,370.00 L405.00,369.00 L405.00,366.00 L404.00,366.00 L403.00,365.00 L403.00,364.00 L400.00,364.00 L399.00,363.00 L399.00,362.00 L392.00,362.00 Z M390.00,348.00 L390.00,349.00 L389.00,350.00 L388.00,350.00 L388.00,351.00 L391.00,351.00 L392.00,352.00 L392.00,353.00 L393.00,353.00 L394.00,354.00 L394.00,355.00 L399.00,355.00 L399.00,354.00 L398.00,354.00 L397.00,353.00 L397.00,350.00 L396.00,350.00 L395.00,349.00 L395.00,348.00 L390.00,348.00 Z M362.00,332.00 L362.00,335.00 L363.00,335.00 L364.00,336.00 L364.00,337.00 L365.00,337.00 L365.00,336.00 L366.00,335.00 L367.00,335.00 L367.00,332.00 L362.00,332.00 Z M424.00,324.00 L424.00,325.00 L423.00,326.00 L420.00,326.00 L420.00,329.00 L421.00,329.00 L422.00,330.00 L422.00,331.00 L423.00,331.00 L424.00,332.00 L424.00,333.00 L429.00,333.00 L429.00,332.00 L430.00,331.00 L431.00,331.00 L431.00,330.00 L430.00,330.00 L429.00,329.00 L429.00,326.00 L428.00,326.00 L427.00,325.00 L427.00,324.00 L424.00,324.00 Z M420.00,306.00 L420.00,307.00 L419.00,308.00 L418.00,308.00 L418.00,311.00 L423.00,311.00 L423.00,308.00 L422.00,308.00 L421.00,307.00 L421.00,306.00 L420.00,306.00 Z M414.00,292.00 L414.00,293.00 L413.00,294.00 L412.00,294.00 L412.00,295.00 L411.00,296.00 L410.00,296.00 L410.00,301.00 L415.00,301.00 L415.00,296.00 L416.00,295.00 L419.00,295.00 L419.00,292.00 L414.00,292.00 Z M496.00,282.00 L496.00,283.00 L495.00,284.00 L478.00,284.00 L478.00,285.00 L477.00,286.00 L464.00,286.00 L464.00,287.00 L463.00,288.00 L452.00,288.00 L452.00,289.00 L451.00,290.00 L444.00,290.00 L444.00,291.00 L445.00,291.00 L446.00,292.00 L446.00,293.00 L449.00,293.00 L450.00,294.00 L450.00,295.00 L449.00,296.00 L440.00,296.00 L440.00,297.00 L443.00,297.00 L444.00,298.00 L444.00,299.00 L447.00,299.00 L448.00,300.00 L448.00,303.00 L447.00,304.00 L446.00,304.00 L446.00,305.00 L445.00,306.00 L440.00,306.00 L439.00,305.00 L439.00,304.00 L430.00,304.00 L430.00,307.00 L431.00,307.00 L432.00,308.00 L432.00,311.00 L431.00,312.00 L428.00,312.00 L428.00,315.00 L429.00,315.00 L430.00,316.00 L430.00,317.00 L433.00,317.00 L434.00,318.00 L434.00,319.00 L435.00,319.00 L436.00,320.00 L436.00,321.00 L437.00,321.00 L437.00,320.00 L438.00,319.00 L439.00,319.00 L439.00,314.00 L440.00,313.00 L441.00,313.00 L441.00,310.00 L442.00,309.00 L445.00,309.00 L446.00,310.00 L446.00,311.00 L447.00,311.00 L448.00,312.00 L448.00,313.00 L453.00,313.00 L454.00,314.00 L454.00,315.00 L455.00,315.00 L456.00,316.00 L456.00,317.00 L459.00,317.00 L460.00,318.00 L460.00,321.00 L459.00,322.00 L458.00,322.00 L458.00,323.00 L457.00,324.00 L450.00,324.00 L449.00,323.00 L449.00,318.00 L448.00,318.00 L448.00,321.00 L447.00,322.00 L446.00,322.00 L446.00,323.00 L445.00,324.00 L442.00,324.00 L442.00,325.00 L441.00,326.00 L440.00,326.00 L440.00,333.00 L441.00,333.00 L442.00,334.00 L442.00,339.00 L441.00,340.00 L438.00,340.00 L438.00,341.00 L437.00,342.00 L434.00,342.00 L433.00,341.00 L433.00,340.00 L430.00,340.00 L429.00,339.00 L429.00,338.00 L426.00,338.00 L426.00,341.00 L425.00,342.00 L416.00,342.00 L416.00,343.00 L415.00,344.00 L414.00,344.00 L414.00,345.00 L413.00,346.00 L412.00,346.00 L412.00,349.00 L411.00,350.00 L410.00,350.00 L410.00,357.00 L411.00,357.00 L412.00,358.00 L412.00,359.00 L413.00,359.00 L414.00,360.00 L414.00,361.00 L413.00,362.00 L412.00,362.00 L412.00,365.00 L413.00,365.00 L414.00,366.00 L414.00,367.00 L415.00,367.00 L416.00,368.00 L416.00,369.00 L417.00,369.00 L418.00,370.00 L418.00,371.00 L419.00,371.00 L419.00,370.00 L420.00,369.00 L427.00,369.00 L427.00,366.00 L428.00,365.00 L429.00,365.00 L429.00,364.00 L430.00,363.00 L431.00,363.00 L431.00,362.00 L432.00,361.00 L439.00,361.00 L440.00,362.00 L440.00,363.00 L441.00,363.00 L442.00,364.00 L442.00,365.00 L449.00,365.00 L450.00,366.00 L450.00,367.00 L449.00,368.00 L448.00,368.00 L448.00,373.00 L449.00,373.00 L450.00,374.00 L450.00,375.00 L449.00,376.00 L448.00,376.00 L448.00,377.00 L447.00,378.00 L444.00,378.00 L443.00,377.00 L443.00,374.00 L440.00,374.00 L439.00,373.00 L439.00,368.00 L438.00,368.00 L438.00,369.00 L437.00,370.00 L436.00,370.00 L436.00,371.00 L435.00,372.00 L434.00,372.00 L434.00,373.00 L433.00,374.00 L432.00,374.00 L431.00,373.00 L431.00,372.00 L426.00,372.00 L426.00,375.00 L425.00,376.00 L424.00,376.00 L424.00,377.00 L423.00,378.00 L420.00,378.00 L420.00,379.00 L419.00,380.00 L418.00,380.00 L418.00,383.00 L419.00,383.00 L420.00,384.00 L420.00,387.00 L419.00,388.00 L416.00,388.00 L416.00,389.00 L415.00,390.00 L412.00,390.00 L412.00,391.00 L411.00,392.00 L410.00,392.00 L410.00,399.00 L409.00,400.00 L406.00,400.00 L406.00,401.00 L405.00,402.00 L404.00,402.00 L404.00,403.00 L403.00,404.00 L402.00,404.00 L402.00,405.00 L401.00,406.00 L400.00,406.00 L400.00,409.00 L403.00,409.00 L404.00,410.00 L404.00,411.00 L407.00,411.00 L407.00,410.00 L408.00,409.00 L413.00,409.00 L413.00,402.00 L414.00,401.00 L419.00,401.00 L420.00,402.00 L420.00,405.00 L421.00,405.00 L422.00,406.00 L422.00,407.00 L425.00,407.00 L425.00,404.00 L424.00,404.00 L423.00,403.00 L423.00,398.00 L424.00,397.00 L429.00,397.00 L430.00,398.00 L430.00,407.00 L431.00,407.00 L432.00,408.00 L432.00,411.00 L431.00,412.00 L424.00,412.00 L424.00,413.00 L423.00,414.00 L422.00,414.00 L422.00,415.00 L421.00,416.00 L420.00,416.00 L420.00,417.00 L419.00,418.00 L414.00,418.00 L414.00,421.00 L413.00,422.00 L412.00,422.00 L411.00,421.00 L411.00,416.00 L408.00,416.00 L408.00,417.00 L407.00,418.00 L406.00,418.00 L406.00,419.00 L405.00,420.00 L404.00,420.00 L404.00,423.00 L403.00,424.00 L398.00,424.00 L397.00,423.00 L397.00,422.00 L394.00,422.00 L393.00,421.00 L393.00,420.00 L390.00,420.00 L389.00,419.00 L389.00,416.00 L390.00,415.00 L391.00,415.00 L391.00,414.00 L390.00,414.00 L389.00,413.00 L389.00,412.00 L388.00,412.00 L387.00,411.00 L387.00,410.00 L384.00,410.00 L383.00,409.00 L383.00,408.00 L382.00,408.00 L381.00,407.00 L381.00,404.00 L378.00,404.00 L377.00,403.00 L377.00,402.00 L376.00,402.00 L375.00,401.00 L375.00,400.00 L374.00,400.00 L374.00,401.00 L375.00,401.00 L376.00,402.00 L376.00,405.00 L375.00,406.00 L374.00,406.00 L374.00,407.00 L373.00,408.00 L372.00,408.00 L371.00,407.00 L371.00,406.00 L368.00,406.00 L368.00,407.00 L367.00,408.00 L366.00,408.00 L366.00,409.00 L365.00,410.00 L364.00,410.00 L364.00,411.00 L365.00,411.00 L366.00,412.00 L366.00,413.00 L369.00,413.00 L369.00,412.00 L370.00,411.00 L371.00,411.00 L371.00,410.00 L372.00,409.00 L373.00,409.00 L374.00,410.00 L374.00,411.00 L375.00,411.00 L376.00,412.00 L376.00,415.00 L377.00,415.00 L378.00,416.00 L378.00,423.00 L381.00,423.00 L381.00,422.00 L382.00,421.00 L383.00,421.00 L383.00,420.00 L384.00,419.00 L387.00,419.00 L388.00,420.00 L388.00,425.00 L389.00,425.00 L390.00,426.00 L390.00,433.00 L391.00,433.00 L392.00,434.00 L392.00,435.00 L397.00,435.00 L397.00,434.00 L398.00,433.00 L401.00,433.00 L401.00,430.00 L402.00,429.00 L403.00,429.00 L403.00,428.00 L404.00,427.00 L405.00,427.00 L405.00,426.00 L406.00,425.00 L407.00,425.00 L408.00,426.00 L408.00,427.00 L409.00,427.00 L410.00,428.00 L410.00,429.00 L409.00,430.00 L408.00,430.00 L408.00,431.00 L407.00,432.00 L406.00,432.00 L406.00,439.00 L409.00,439.00 L410.00,440.00 L410.00,441.00 L411.00,441.00 L412.00,442.00 L412.00,445.00 L411.00,446.00 L410.00,446.00 L410.00,447.00 L409.00,448.00 L406.00,448.00 L405.00,447.00 L405.00,444.00 L404.00,444.00 L403.00,443.00 L403.00,442.00 L400.00,442.00 L400.00,443.00 L399.00,444.00 L392.00,444.00 L392.00,445.00 L391.00,446.00 L390.00,446.00 L390.00,447.00 L389.00,448.00 L386.00,448.00 L385.00,447.00 L385.00,444.00 L384.00,444.00 L383.00,443.00 L383.00,442.00 L378.00,442.00 L378.00,443.00 L377.00,444.00 L376.00,444.00 L376.00,445.00 L379.00,445.00 L380.00,446.00 L380.00,447.00 L383.00,447.00 L384.00,448.00 L384.00,453.00 L385.00,453.00 L386.00,454.00 L386.00,457.00 L387.00,457.00 L388.00,458.00 L388.00,459.00 L389.00,459.00 L390.00,460.00 L390.00,461.00 L393.00,461.00 L393.00,460.00 L394.00,459.00 L395.00,459.00 L395.00,458.00 L396.00,457.00 L403.00,457.00 L403.00,456.00 L402.00,456.00 L401.00,455.00 L401.00,452.00 L402.00,451.00 L405.00,451.00 L406.00,452.00 L406.00,453.00 L407.00,453.00 L408.00,454.00 L408.00,455.00 L409.00,455.00 L410.00,456.00 L410.00,459.00 L409.00,460.00 L408.00,460.00 L408.00,461.00 L407.00,462.00 L406.00,462.00 L406.00,463.00 L405.00,464.00 L402.00,464.00 L402.00,475.00 L407.00,475.00 L407.00,474.00 L408.00,473.00 L409.00,473.00 L410.00,474.00 L410.00,477.00 L409.00,478.00 L408.00,478.00 L408.00,479.00 L407.00,480.00 L402.00,480.00 L402.00,481.00 L401.00,482.00 L398.00,482.00 L398.00,483.00 L397.00,484.00 L392.00,484.00 L392.00,485.00 L391.00,486.00 L386.00,486.00 L386.00,489.00 L387.00,489.00 L387.00,488.00 L388.00,487.00 L391.00,487.00 L392.00,488.00 L392.00,489.00 L393.00,489.00 L394.00,490.00 L394.00,491.00 L393.00,492.00 L392.00,492.00 L392.00,493.00 L391.00,494.00 L386.00,494.00 L386.00,503.00 L385.00,504.00 L382.00,504.00 L382.00,507.00 L387.00,507.00 L387.00,502.00 L388.00,501.00 L391.00,501.00 L392.00,502.00 L392.00,503.00 L393.00,503.00 L394.00,504.00 L394.00,509.00 L395.00,509.00 L396.00,510.00 L396.00,511.00 L397.00,511.00 L398.00,512.00 L398.00,513.00 L399.00,513.00 L400.00,514.00 L400.00,515.00 L399.00,516.00 L398.00,516.00 L398.00,517.00 L397.00,518.00 L394.00,518.00 L394.00,519.00 L393.00,520.00 L392.00,520.00 L391.00,519.00 L391.00,516.00 L390.00,516.00 L389.00,515.00 L389.00,512.00 L384.00,512.00 L384.00,513.00 L383.00,514.00 L382.00,514.00 L382.00,517.00 L383.00,517.00 L384.00,518.00 L384.00,519.00 L385.00,519.00 L386.00,520.00 L386.00,521.00 L391.00,521.00 L392.00,522.00 L392.00,523.00 L393.00,523.00 L394.00,524.00 L394.00,525.00 L395.00,525.00 L396.00,526.00 L396.00,527.00 L397.00,527.00 L398.00,528.00 L398.00,529.00 L401.00,529.00 L402.00,530.00 L402.00,531.00 L407.00,531.00 L408.00,532.00 L408.00,533.00 L409.00,533.00 L410.00,534.00 L410.00,537.00 L409.00,538.00 L404.00,538.00 L404.00,541.00 L403.00,542.00 L402.00,542.00 L402.00,543.00 L403.00,543.00 L404.00,544.00 L404.00,547.00 L403.00,548.00 L402.00,548.00 L402.00,549.00 L401.00,550.00 L396.00,550.00 L395.00,549.00 L395.00,548.00 L394.00,548.00 L393.00,547.00 L393.00,546.00 L390.00,546.00 L389.00,545.00 L389.00,544.00 L388.00,544.00 L387.00,543.00 L387.00,542.00 L388.00,541.00 L397.00,541.00 L397.00,540.00 L398.00,539.00 L399.00,539.00 L399.00,536.00 L396.00,536.00 L395.00,535.00 L395.00,534.00 L394.00,534.00 L393.00,533.00 L393.00,532.00 L390.00,532.00 L389.00,531.00 L389.00,530.00 L386.00,530.00 L386.00,531.00 L385.00,532.00 L384.00,532.00 L384.00,537.00 L385.00,537.00 L386.00,538.00 L386.00,541.00 L385.00,542.00 L378.00,542.00 L378.00,543.00 L377.00,544.00 L376.00,544.00 L376.00,547.00 L375.00,548.00 L374.00,548.00 L374.00,549.00 L375.00,549.00 L376.00,550.00 L376.00,555.00 L375.00,556.00 L374.00,556.00 L374.00,561.00 L379.00,561.00 L379.00,560.00 L380.00,559.00 L383.00,559.00 L383.00,558.00 L384.00,557.00 L385.00,557.00 L385.00,556.00 L386.00,555.00 L395.00,555.00 L396.00,556.00 L396.00,557.00 L397.00,557.00 L398.00,558.00 L398.00,559.00 L397.00,560.00 L390.00,560.00 L390.00,565.00 L389.00,566.00 L388.00,566.00 L388.00,567.00 L387.00,568.00 L386.00,568.00 L386.00,569.00 L387.00,569.00 L388.00,570.00 L388.00,571.00 L387.00,572.00 L384.00,572.00 L384.00,575.00 L383.00,576.00 L382.00,576.00 L382.00,579.00 L381.00,580.00 L380.00,580.00 L380.00,581.00 L379.00,582.00 L376.00,582.00 L375.00,581.00 L375.00,580.00 L374.00,580.00 L373.00,579.00 L373.00,578.00 L372.00,578.00 L372.00,581.00 L373.00,581.00 L374.00,582.00 L374.00,585.00 L373.00,586.00 L370.00,586.00 L369.00,585.00 L369.00,584.00 L362.00,584.00 L362.00,591.00 L363.00,591.00 L364.00,592.00 L364.00,593.00 L369.00,593.00 L369.00,590.00 L370.00,589.00 L371.00,589.00 L371.00,588.00 L372.00,587.00 L377.00,587.00 L378.00,588.00 L378.00,589.00 L379.00,589.00 L380.00,590.00 L380.00,591.00 L379.00,592.00 L378.00,592.00 L378.00,593.00 L377.00,594.00 L374.00,594.00 L374.00,599.00 L375.00,599.00 L376.00,600.00 L376.00,603.00 L377.00,603.00 L378.00,604.00 L378.00,605.00 L383.00,605.00 L383.00,604.00 L384.00,603.00 L385.00,603.00 L385.00,600.00 L384.00,600.00 L383.00,599.00 L383.00,598.00 L384.00,597.00 L385.00,597.00 L385.00,594.00 L386.00,593.00 L391.00,593.00 L392.00,594.00 L392.00,595.00 L393.00,595.00 L394.00,596.00 L394.00,597.00 L399.00,597.00 L400.00,598.00 L400.00,601.00 L399.00,602.00 L390.00,602.00 L390.00,607.00 L395.00,607.00 L396.00,608.00 L396.00,611.00 L395.00,612.00 L394.00,612.00 L394.00,613.00 L393.00,614.00 L388.00,614.00 L387.00,613.00 L387.00,612.00 L384.00,612.00 L384.00,615.00 L385.00,615.00 L386.00,616.00 L386.00,619.00 L385.00,620.00 L382.00,620.00 L382.00,621.00 L381.00,622.00 L376.00,622.00 L376.00,623.00 L375.00,624.00 L374.00,624.00 L374.00,625.00 L373.00,626.00 L372.00,626.00 L372.00,627.00 L371.00,628.00 L370.00,628.00 L370.00,629.00 L369.00,630.00 L368.00,630.00 L368.00,633.00 L371.00,633.00 L371.00,632.00 L372.00,631.00 L373.00,631.00 L373.00,630.00 L374.00,629.00 L379.00,629.00 L380.00,630.00 L380.00,631.00 L381.00,631.00 L381.00,630.00 L382.00,629.00 L385.00,629.00 L386.00,630.00 L386.00,631.00 L389.00,631.00 L389.00,630.00 L390.00,629.00 L391.00,629.00 L391.00,626.00 L392.00,625.00 L393.00,625.00 L393.00,624.00 L392.00,624.00 L391.00,623.00 L391.00,622.00 L390.00,622.00 L389.00,621.00 L389.00,620.00 L390.00,619.00 L391.00,619.00 L391.00,618.00 L392.00,617.00 L395.00,617.00 L396.00,618.00 L396.00,619.00 L397.00,619.00 L398.00,620.00 L398.00,621.00 L397.00,622.00 L396.00,622.00 L396.00,625.00 L397.00,625.00 L398.00,626.00 L398.00,629.00 L397.00,630.00 L396.00,630.00 L396.00,631.00 L395.00,632.00 L394.00,632.00 L394.00,633.00 L393.00,634.00 L388.00,634.00 L388.00,635.00 L387.00,636.00 L386.00,636.00 L386.00,637.00 L385.00,638.00 L384.00,638.00 L384.00,639.00 L383.00,640.00 L382.00,640.00 L382.00,641.00 L383.00,641.00 L384.00,642.00 L384.00,645.00 L385.00,645.00 L386.00,646.00 L386.00,647.00 L387.00,647.00 L388.00,648.00 L388.00,649.00 L389.00,649.00 L390.00,650.00 L390.00,653.00 L389.00,654.00 L382.00,654.00 L382.00,655.00 L381.00,656.00 L380.00,656.00 L380.00,657.00 L379.00,658.00 L378.00,658.00 L378.00,661.00 L377.00,662.00 L376.00,662.00 L376.00,663.00 L375.00,664.00 L374.00,664.00 L374.00,669.00 L375.00,669.00 L376.00,670.00 L376.00,673.00 L375.00,674.00 L370.00,674.00 L369.00,673.00 L369.00,672.00 L368.00,672.00 L367.00,671.00 L367.00,670.00 L362.00,670.00 L362.00,671.00 L363.00,671.00 L364.00,672.00 L364.00,673.00 L365.00,673.00 L366.00,674.00 L366.00,675.00 L365.00,676.00 L358.00,676.00 L357.00,675.00 L357.00,674.00 L356.00,674.00 L356.00,677.00 L357.00,677.00 L358.00,678.00 L358.00,679.00 L361.00,679.00 L362.00,680.00 L362.00,681.00 L363.00,681.00 L364.00,682.00 L364.00,683.00 L365.00,683.00 L366.00,684.00 L366.00,685.00 L367.00,685.00 L368.00,686.00 L368.00,687.00 L371.00,687.00 L372.00,688.00 L372.00,689.00 L373.00,689.00 L374.00,690.00 L374.00,691.00 L375.00,691.00 L376.00,692.00 L376.00,693.00 L377.00,693.00 L378.00,694.00 L378.00,695.00 L381.00,695.00 L382.00,696.00 L382.00,697.00 L383.00,697.00 L384.00,698.00 L384.00,699.00 L385.00,699.00 L386.00,700.00 L386.00,701.00 L389.00,701.00 L390.00,702.00 L390.00,703.00 L391.00,703.00 L392.00,704.00 L392.00,705.00 L395.00,705.00 L396.00,706.00 L396.00,707.00 L397.00,707.00 L398.00,708.00 L398.00,709.00 L401.00,709.00 L402.00,710.00 L402.00,711.00 L405.00,711.00 L406.00,712.00 L406.00,713.00 L409.00,713.00 L410.00,714.00 L410.00,715.00 L413.00,715.00 L414.00,716.00 L414.00,717.00 L417.00,717.00 L418.00,718.00 L418.00,719.00 L421.00,719.00 L422.00,720.00 L422.00,721.00 L425.00,721.00 L426.00,722.00 L426.00,723.00 L429.00,723.00 L430.00,724.00 L430.00,725.00 L435.00,725.00 L436.00,726.00 L436.00,727.00 L441.00,727.00 L442.00,728.00 L442.00,729.00 L447.00,729.00 L448.00,730.00 L448.00,731.00 L453.00,731.00 L454.00,732.00 L454.00,733.00 L461.00,733.00 L462.00,734.00 L462.00,735.00 L469.00,735.00 L470.00,736.00 L470.00,737.00 L483.00,737.00 L484.00,738.00 L484.00,739.00 L501.00,739.00 L502.00,740.00 L502.00,741.00 L531.00,741.00 L531.00,740.00 L532.00,739.00 L549.00,739.00 L549.00,738.00 L550.00,737.00 L561.00,737.00 L561.00,736.00 L562.00,735.00 L569.00,735.00 L569.00,734.00 L570.00,733.00 L577.00,733.00 L577.00,732.00 L578.00,731.00 L583.00,731.00 L583.00,730.00 L584.00,729.00 L589.00,729.00 L589.00,728.00 L590.00,727.00 L595.00,727.00 L595.00,726.00 L596.00,725.00 L599.00,725.00 L599.00,724.00 L600.00,723.00 L605.00,723.00 L605.00,722.00 L606.00,721.00 L609.00,721.00 L609.00,720.00 L610.00,719.00 L613.00,719.00 L613.00,718.00 L614.00,717.00 L617.00,717.00 L617.00,716.00 L618.00,715.00 L621.00,715.00 L621.00,714.00 L622.00,713.00 L625.00,713.00 L625.00,712.00 L626.00,711.00 L629.00,711.00 L629.00,710.00 L630.00,709.00 L631.00,709.00 L631.00,708.00 L632.00,707.00 L635.00,707.00 L635.00,706.00 L636.00,705.00 L639.00,705.00 L639.00,704.00 L640.00,703.00 L641.00,703.00 L641.00,702.00 L642.00,701.00 L643.00,701.00 L643.00,700.00 L644.00,699.00 L647.00,699.00 L647.00,698.00 L648.00,697.00 L649.00,697.00 L649.00,696.00 L650.00,695.00 L653.00,695.00 L653.00,694.00 L654.00,693.00 L655.00,693.00 L655.00,692.00 L656.00,691.00 L657.00,691.00 L657.00,690.00 L658.00,689.00 L659.00,689.00 L659.00,688.00 L660.00,687.00 L661.00,687.00 L661.00,686.00 L662.00,685.00 L665.00,685.00 L665.00,684.00 L666.00,683.00 L667.00,683.00 L667.00,682.00 L668.00,681.00 L669.00,681.00 L669.00,680.00 L670.00,679.00 L671.00,679.00 L671.00,678.00 L672.00,677.00 L673.00,677.00 L673.00,676.00 L674.00,675.00 L675.00,675.00 L675.00,674.00 L676.00,673.00 L677.00,673.00 L677.00,672.00 L678.00,671.00 L679.00,671.00 L679.00,670.00 L680.00,669.00 L681.00,669.00 L681.00,668.00 L682.00,667.00 L683.00,667.00 L683.00,666.00 L684.00,665.00 L685.00,665.00 L685.00,664.00 L686.00,663.00 L687.00,663.00 L687.00,662.00 L688.00,661.00 L689.00,661.00 L689.00,658.00 L690.00,657.00 L691.00,657.00 L691.00,656.00 L692.00,655.00 L693.00,655.00 L693.00,654.00 L694.00,653.00 L695.00,653.00 L695.00,650.00 L696.00,649.00 L697.00,649.00 L697.00,648.00 L698.00,647.00 L699.00,647.00 L699.00,646.00 L700.00,645.00 L701.00,645.00 L701.00,642.00 L702.00,641.00 L703.00,641.00 L703.00,640.00 L704.00,639.00 L705.00,639.00 L705.00,636.00 L706.00,635.00 L707.00,635.00 L707.00,634.00 L708.00,633.00 L709.00,633.00 L709.00,630.00 L710.00,629.00 L711.00,629.00 L711.00,626.00 L712.00,625.00 L713.00,625.00 L713.00,624.00 L714.00,623.00 L715.00,623.00 L715.00,620.00 L716.00,619.00 L717.00,619.00 L717.00,616.00 L718.00,615.00 L719.00,615.00 L719.00,612.00 L720.00,611.00 L721.00,611.00 L721.00,606.00 L722.00,605.00 L723.00,605.00 L723.00,602.00 L724.00,601.00 L725.00,601.00 L725.00,598.00 L726.00,597.00 L727.00,597.00 L727.00,592.00 L728.00,591.00 L729.00,591.00 L729.00,588.00 L730.00,587.00 L731.00,587.00 L731.00,582.00 L732.00,581.00 L733.00,581.00 L733.00,574.00 L734.00,573.00 L735.00,573.00 L735.00,566.00 L736.00,565.00 L737.00,565.00 L737.00,556.00 L738.00,555.00 L739.00,555.00 L739.00,544.00 L740.00,543.00 L741.00,543.00 L741.00,526.00 L742.00,525.00 L743.00,525.00 L743.00,498.00 L742.00,498.00 L741.00,497.00 L741.00,480.00 L740.00,480.00 L739.00,479.00 L739.00,468.00 L738.00,468.00 L737.00,467.00 L737.00,458.00 L736.00,458.00 L735.00,457.00 L735.00,450.00 L734.00,450.00 L733.00,449.00 L733.00,442.00 L732.00,442.00 L731.00,441.00 L731.00,436.00 L730.00,436.00 L729.00,435.00 L729.00,432.00 L728.00,432.00 L727.00,431.00 L727.00,426.00 L726.00,426.00 L725.00,425.00 L725.00,422.00 L724.00,422.00 L723.00,421.00 L723.00,416.00 L722.00,416.00 L721.00,415.00 L721.00,412.00 L720.00,412.00 L719.00,411.00 L719.00,408.00 L718.00,408.00 L717.00,407.00 L717.00,404.00 L716.00,404.00 L715.00,403.00 L715.00,400.00 L714.00,400.00 L713.00,399.00 L713.00,396.00 L712.00,396.00 L711.00,395.00 L711.00,394.00 L710.00,394.00 L709.00,393.00 L709.00,390.00 L708.00,390.00 L707.00,389.00 L707.00,386.00 L706.00,386.00 L705.00,385.00 L705.00,384.00 L704.00,384.00 L703.00,383.00 L703.00,380.00 L702.00,380.00 L701.00,379.00 L701.00,378.00 L700.00,378.00 L699.00,377.00 L699.00,376.00 L698.00,376.00 L697.00,375.00 L697.00,372.00 L696.00,372.00 L695.00,371.00 L695.00,370.00 L694.00,370.00 L693.00,369.00 L693.00,368.00 L692.00,368.00 L691.00,367.00 L691.00,366.00 L690.00,366.00 L689.00,365.00 L689.00,362.00 L688.00,362.00 L687.00,361.00 L687.00,360.00 L686.00,360.00 L685.00,359.00 L685.00,358.00 L684.00,358.00 L683.00,357.00 L683.00,356.00 L682.00,356.00 L681.00,355.00 L681.00,354.00 L680.00,354.00 L679.00,353.00 L679.00,352.00 L678.00,352.00 L677.00,351.00 L677.00,350.00 L676.00,350.00 L675.00,349.00 L675.00,348.00 L674.00,348.00 L673.00,347.00 L673.00,346.00 L672.00,346.00 L671.00,345.00 L671.00,344.00 L670.00,344.00 L669.00,343.00 L669.00,342.00 L668.00,342.00 L667.00,341.00 L667.00,340.00 L666.00,340.00 L665.00,339.00 L665.00,338.00 L664.00,338.00 L663.00,337.00 L663.00,336.00 L660.00,336.00 L659.00,335.00 L659.00,334.00 L658.00,334.00 L658.00,335.00 L659.00,335.00 L660.00,336.00 L660.00,337.00 L661.00,337.00 L662.00,338.00 L662.00,339.00 L663.00,339.00 L664.00,340.00 L664.00,343.00 L665.00,343.00 L666.00,344.00 L666.00,345.00 L667.00,345.00 L668.00,346.00 L668.00,347.00 L669.00,347.00 L670.00,348.00 L670.00,349.00 L671.00,349.00 L672.00,350.00 L672.00,353.00 L673.00,353.00 L674.00,354.00 L674.00,355.00 L675.00,355.00 L676.00,356.00 L676.00,359.00 L677.00,359.00 L678.00,360.00 L678.00,361.00 L679.00,361.00 L680.00,362.00 L680.00,365.00 L681.00,365.00 L682.00,366.00 L682.00,369.00 L683.00,369.00 L684.00,370.00 L684.00,373.00 L685.00,373.00 L686.00,374.00 L686.00,377.00 L687.00,377.00 L688.00,378.00 L688.00,381.00 L689.00,381.00 L690.00,382.00 L690.00,387.00 L691.00,387.00 L692.00,388.00 L692.00,391.00 L693.00,391.00 L694.00,392.00 L694.00,397.00 L695.00,397.00 L696.00,398.00 L696.00,403.00 L697.00,403.00 L698.00,404.00 L698.00,411.00 L699.00,411.00 L700.00,412.00 L700.00,419.00 L701.00,419.00 L702.00,420.00 L702.00,433.00 L703.00,433.00 L704.00,434.00 L704.00,459.00 L703.00,460.00 L702.00,460.00 L702.00,473.00 L701.00,474.00 L700.00,474.00 L700.00,483.00 L699.00,484.00 L698.00,484.00 L698.00,489.00 L697.00,490.00 L696.00,490.00 L696.00,495.00 L695.00,496.00 L694.00,496.00 L694.00,501.00 L693.00,502.00 L692.00,502.00 L692.00,505.00 L691.00,506.00 L690.00,506.00 L690.00,509.00 L689.00,510.00 L688.00,510.00 L688.00,513.00 L687.00,514.00 L686.00,514.00 L686.00,515.00 L685.00,516.00 L684.00,516.00 L684.00,519.00 L683.00,520.00 L682.00,520.00 L682.00,521.00 L681.00,522.00 L680.00,522.00 L680.00,525.00 L679.00,526.00 L678.00,526.00 L678.00,527.00 L677.00,528.00 L676.00,528.00 L676.00,529.00 L675.00,530.00 L674.00,530.00 L674.00,531.00 L673.00,532.00 L672.00,532.00 L672.00,533.00 L671.00,534.00 L670.00,534.00 L670.00,535.00 L669.00,536.00 L666.00,536.00 L666.00,537.00 L665.00,538.00 L664.00,538.00 L664.00,539.00 L663.00,540.00 L662.00,540.00 L662.00,541.00 L661.00,542.00 L658.00,542.00 L658.00,543.00 L657.00,544.00 L652.00,544.00 L652.00,545.00 L651.00,546.00 L648.00,546.00 L648.00,547.00 L647.00,548.00 L638.00,548.00 L638.00,549.00 L637.00,550.00 L626.00,550.00 L625.00,549.00 L625.00,548.00 L614.00,548.00 L613.00,547.00 L613.00,546.00 L610.00,546.00 L609.00,545.00 L609.00,544.00 L606.00,544.00 L605.00,543.00 L605.00,542.00 L602.00,542.00 L601.00,541.00 L601.00,540.00 L598.00,540.00 L597.00,539.00 L597.00,538.00 L596.00,538.00 L595.00,537.00 L595.00,536.00 L592.00,536.00 L591.00,535.00 L591.00,534.00 L590.00,534.00 L589.00,533.00 L589.00,532.00 L588.00,532.00 L587.00,531.00 L587.00,530.00 L586.00,530.00 L585.00,529.00 L585.00,528.00 L584.00,528.00 L583.00,527.00 L583.00,526.00 L582.00,526.00 L581.00,525.00 L581.00,524.00 L580.00,524.00 L579.00,523.00 L579.00,522.00 L578.00,522.00 L577.00,521.00 L577.00,520.00 L576.00,520.00 L575.00,519.00 L575.00,516.00 L574.00,516.00 L573.00,515.00 L573.00,514.00 L572.00,514.00 L571.00,513.00 L571.00,510.00 L570.00,510.00 L569.00,509.00 L569.00,506.00 L568.00,506.00 L567.00,505.00 L567.00,504.00 L566.00,504.00 L565.00,503.00 L565.00,500.00 L564.00,500.00 L563.00,499.00 L563.00,494.00 L562.00,494.00 L561.00,493.00 L561.00,490.00 L560.00,490.00 L559.00,489.00 L559.00,484.00 L558.00,484.00 L557.00,483.00 L557.00,478.00 L556.00,478.00 L555.00,477.00 L555.00,468.00 L554.00,468.00 L553.00,467.00 L553.00,436.00 L554.00,435.00 L555.00,435.00 L555.00,428.00 L556.00,427.00 L557.00,427.00 L557.00,422.00 L558.00,421.00 L559.00,421.00 L559.00,418.00 L560.00,417.00 L561.00,417.00 L561.00,416.00 L562.00,415.00 L563.00,415.00 L563.00,412.00 L564.00,411.00 L565.00,411.00 L565.00,410.00 L566.00,409.00 L567.00,409.00 L567.00,408.00 L568.00,407.00 L569.00,407.00 L569.00,406.00 L570.00,405.00 L571.00,405.00 L571.00,404.00 L572.00,403.00 L575.00,403.00 L575.00,402.00 L576.00,401.00 L589.00,401.00 L590.00,402.00 L590.00,403.00 L595.00,403.00 L596.00,404.00 L596.00,405.00 L597.00,405.00 L598.00,406.00 L598.00,407.00 L601.00,407.00 L602.00,408.00 L602.00,409.00 L603.00,409.00 L604.00,410.00 L604.00,411.00 L605.00,411.00 L606.00,412.00 L606.00,415.00 L607.00,415.00 L608.00,416.00 L608.00,417.00 L609.00,417.00 L610.00,418.00 L610.00,419.00 L611.00,419.00 L611.00,412.00 L610.00,412.00 L609.00,411.00 L609.00,408.00 L610.00,407.00 L611.00,407.00 L612.00,408.00 L612.00,409.00 L613.00,409.00 L614.00,410.00 L614.00,413.00 L615.00,413.00 L616.00,414.00 L616.00,419.00 L617.00,419.00 L618.00,420.00 L618.00,441.00 L617.00,442.00 L616.00,442.00 L616.00,449.00 L617.00,449.00 L617.00,448.00 L618.00,447.00 L621.00,447.00 L621.00,446.00 L622.00,445.00 L623.00,445.00 L623.00,444.00 L624.00,443.00 L625.00,443.00 L625.00,442.00 L626.00,441.00 L627.00,441.00 L627.00,440.00 L628.00,439.00 L629.00,439.00 L629.00,438.00 L630.00,437.00 L631.00,437.00 L631.00,436.00 L632.00,435.00 L633.00,435.00 L633.00,434.00 L634.00,433.00 L635.00,433.00 L635.00,430.00 L636.00,429.00 L637.00,429.00 L637.00,426.00 L638.00,425.00 L639.00,425.00 L639.00,422.00 L640.00,421.00 L641.00,421.00 L641.00,416.00 L642.00,415.00 L643.00,415.00 L643.00,390.00 L642.00,390.00 L641.00,389.00 L641.00,382.00 L640.00,382.00 L639.00,381.00 L639.00,378.00 L638.00,378.00 L637.00,377.00 L637.00,372.00 L636.00,372.00 L635.00,371.00 L635.00,370.00 L632.00,370.00 L631.00,369.00 L631.00,368.00 L620.00,368.00 L619.00,367.00 L619.00,366.00 L618.00,366.00 L617.00,365.00 L617.00,364.00 L618.00,363.00 L631.00,363.00 L631.00,362.00 L632.00,361.00 L633.00,361.00 L633.00,356.00 L634.00,355.00 L635.00,355.00 L635.00,338.00 L634.00,338.00 L633.00,337.00 L633.00,330.00 L632.00,330.00 L631.00,329.00 L631.00,326.00 L630.00,326.00 L629.00,325.00 L629.00,322.00 L628.00,322.00 L627.00,321.00 L627.00,320.00 L626.00,320.00 L625.00,319.00 L625.00,316.00 L624.00,316.00 L623.00,315.00 L623.00,314.00 L622.00,314.00 L621.00,313.00 L621.00,312.00 L620.00,312.00 L619.00,311.00 L619.00,310.00 L618.00,310.00 L617.00,309.00 L617.00,308.00 L614.00,308.00 L613.00,307.00 L613.00,306.00 L612.00,306.00 L611.00,305.00 L611.00,304.00 L610.00,304.00 L609.00,303.00 L609.00,302.00 L606.00,302.00 L605.00,301.00 L605.00,300.00 L602.00,300.00 L601.00,299.00 L601.00,298.00 L598.00,298.00 L597.00,297.00 L597.00,296.00 L594.00,296.00 L593.00,295.00 L593.00,294.00 L588.00,294.00 L587.00,293.00 L587.00,292.00 L582.00,292.00 L581.00,291.00 L581.00,290.00 L574.00,290.00 L573.00,289.00 L573.00,288.00 L566.00,288.00 L565.00,287.00 L565.00,286.00 L554.00,286.00 L553.00,285.00 L553.00,284.00 L538.00,284.00 L537.00,283.00 L537.00,282.00 L496.00,282.00 Z M365.00,676.00 L366.00,675.00 L369.00,675.00 L370.00,676.00 L370.00,679.00 L369.00,680.00 L368.00,680.00 L367.00,679.00 L367.00,678.00 L366.00,678.00 L365.00,677.00 L365.00,676.00 Z M395.00,674.00 L396.00,673.00 L401.00,673.00 L402.00,674.00 L402.00,677.00 L401.00,678.00 L396.00,678.00 L395.00,677.00 L395.00,674.00 Z M399.00,656.00 L400.00,655.00 L403.00,655.00 L404.00,656.00 L404.00,659.00 L403.00,660.00 L400.00,660.00 L399.00,659.00 L399.00,656.00 Z M387.00,656.00 L388.00,655.00 L391.00,655.00 L392.00,656.00 L392.00,659.00 L391.00,660.00 L390.00,660.00 L390.00,665.00 L391.00,665.00 L392.00,666.00 L392.00,673.00 L391.00,674.00 L390.00,674.00 L390.00,675.00 L389.00,676.00 L388.00,676.00 L387.00,675.00 L387.00,674.00 L384.00,674.00 L383.00,673.00 L383.00,672.00 L382.00,672.00 L381.00,671.00 L381.00,670.00 L382.00,669.00 L383.00,669.00 L383.00,666.00 L384.00,665.00 L385.00,665.00 L385.00,664.00 L384.00,664.00 L383.00,663.00 L383.00,660.00 L384.00,659.00 L385.00,659.00 L385.00,658.00 L386.00,657.00 L387.00,657.00 L387.00,656.00 Z M419.00,632.00 L420.00,631.00 L423.00,631.00 L424.00,632.00 L424.00,633.00 L423.00,634.00 L420.00,634.00 L419.00,633.00 L419.00,632.00 Z M407.00,612.00 L408.00,611.00 L411.00,611.00 L412.00,612.00 L412.00,615.00 L413.00,615.00 L414.00,616.00 L414.00,619.00 L413.00,620.00 L412.00,620.00 L411.00,619.00 L411.00,618.00 L410.00,618.00 L409.00,617.00 L409.00,616.00 L406.00,616.00 L405.00,615.00 L405.00,614.00 L406.00,613.00 L407.00,613.00 L407.00,612.00 Z M417.00,578.00 L418.00,577.00 L423.00,577.00 L424.00,578.00 L424.00,579.00 L425.00,579.00 L426.00,580.00 L426.00,583.00 L425.00,584.00 L424.00,584.00 L424.00,585.00 L423.00,586.00 L420.00,586.00 L419.00,585.00 L419.00,582.00 L416.00,582.00 L415.00,581.00 L415.00,580.00 L416.00,579.00 L417.00,579.00 L417.00,578.00 Z M395.00,572.00 L396.00,571.00 L401.00,571.00 L402.00,572.00 L402.00,579.00 L401.00,580.00 L400.00,580.00 L400.00,585.00 L401.00,585.00 L402.00,586.00 L402.00,587.00 L401.00,588.00 L398.00,588.00 L397.00,587.00 L397.00,586.00 L396.00,586.00 L395.00,585.00 L395.00,572.00 Z M397.00,560.00 L398.00,559.00 L401.00,559.00 L402.00,560.00 L402.00,561.00 L407.00,561.00 L408.00,562.00 L408.00,567.00 L409.00,567.00 L410.00,568.00 L410.00,569.00 L413.00,569.00 L414.00,570.00 L414.00,571.00 L415.00,571.00 L416.00,572.00 L416.00,575.00 L415.00,576.00 L412.00,576.00 L411.00,575.00 L411.00,574.00 L408.00,574.00 L407.00,573.00 L407.00,572.00 L406.00,572.00 L405.00,571.00 L405.00,570.00 L404.00,570.00 L403.00,569.00 L403.00,568.00 L402.00,568.00 L401.00,567.00 L401.00,564.00 L400.00,564.00 L399.00,563.00 L399.00,562.00 L398.00,562.00 L397.00,561.00 L397.00,560.00 Z M419.00,558.00 L420.00,557.00 L423.00,557.00 L424.00,558.00 L424.00,561.00 L423.00,562.00 L422.00,562.00 L422.00,563.00 L421.00,564.00 L416.00,564.00 L415.00,563.00 L415.00,562.00 L416.00,561.00 L417.00,561.00 L417.00,560.00 L418.00,559.00 L419.00,559.00 L419.00,558.00 Z M415.00,542.00 L416.00,541.00 L419.00,541.00 L420.00,542.00 L420.00,543.00 L419.00,544.00 L418.00,544.00 L418.00,545.00 L417.00,546.00 L416.00,546.00 L415.00,545.00 L415.00,542.00 Z M415.00,536.00 L416.00,535.00 L417.00,535.00 L418.00,536.00 L418.00,539.00 L417.00,540.00 L416.00,540.00 L415.00,539.00 L415.00,536.00 Z M419.00,532.00 L420.00,531.00 L421.00,531.00 L422.00,532.00 L422.00,535.00 L421.00,536.00 L418.00,536.00 L417.00,535.00 L417.00,534.00 L418.00,533.00 L419.00,533.00 L419.00,532.00 Z M427.00,526.00 L428.00,525.00 L429.00,525.00 L430.00,526.00 L430.00,527.00 L431.00,527.00 L432.00,528.00 L432.00,531.00 L431.00,532.00 L426.00,532.00 L425.00,531.00 L425.00,528.00 L426.00,527.00 L427.00,527.00 L427.00,526.00 Z M419.00,522.00 L420.00,521.00 L421.00,521.00 L422.00,522.00 L422.00,523.00 L423.00,523.00 L424.00,524.00 L424.00,527.00 L423.00,528.00 L420.00,528.00 L419.00,527.00 L419.00,522.00 Z M425.00,512.00 L426.00,511.00 L429.00,511.00 L430.00,512.00 L430.00,513.00 L429.00,514.00 L426.00,514.00 L425.00,513.00 L425.00,512.00 Z M433.00,510.00 L434.00,509.00 L437.00,509.00 L438.00,510.00 L438.00,513.00 L437.00,514.00 L436.00,514.00 L435.00,513.00 L435.00,512.00 L434.00,512.00 L433.00,511.00 L433.00,510.00 Z M403.00,508.00 L404.00,507.00 L407.00,507.00 L408.00,508.00 L408.00,509.00 L407.00,510.00 L404.00,510.00 L403.00,509.00 L403.00,508.00 Z M401.00,490.00 L402.00,489.00 L405.00,489.00 L406.00,490.00 L406.00,491.00 L407.00,491.00 L408.00,492.00 L408.00,493.00 L409.00,493.00 L410.00,494.00 L410.00,495.00 L413.00,495.00 L414.00,496.00 L414.00,497.00 L425.00,497.00 L426.00,498.00 L426.00,499.00 L425.00,500.00 L424.00,500.00 L424.00,501.00 L423.00,502.00 L422.00,502.00 L422.00,505.00 L423.00,505.00 L424.00,506.00 L424.00,509.00 L423.00,510.00 L422.00,510.00 L421.00,509.00 L421.00,508.00 L420.00,508.00 L419.00,507.00 L419.00,502.00 L418.00,502.00 L417.00,501.00 L417.00,500.00 L416.00,500.00 L416.00,501.00 L415.00,502.00 L410.00,502.00 L409.00,501.00 L409.00,498.00 L406.00,498.00 L405.00,497.00 L405.00,496.00 L404.00,496.00 L403.00,495.00 L403.00,494.00 L402.00,494.00 L401.00,493.00 L401.00,490.00 Z M415.00,488.00 L416.00,487.00 L419.00,487.00 L420.00,488.00 L420.00,489.00 L419.00,490.00 L416.00,490.00 L415.00,489.00 L415.00,488.00 Z M423.00,480.00 L424.00,479.00 L427.00,479.00 L428.00,480.00 L428.00,481.00 L427.00,482.00 L424.00,482.00 L423.00,481.00 L423.00,480.00 Z M405.00,468.00 L406.00,467.00 L409.00,467.00 L410.00,468.00 L410.00,469.00 L409.00,470.00 L406.00,470.00 L405.00,469.00 L405.00,468.00 Z M435.00,462.00 L436.00,461.00 L439.00,461.00 L440.00,462.00 L440.00,465.00 L439.00,466.00 L438.00,466.00 L438.00,467.00 L437.00,468.00 L436.00,468.00 L435.00,467.00 L435.00,466.00 L434.00,466.00 L433.00,465.00 L433.00,464.00 L434.00,463.00 L435.00,463.00 L435.00,462.00 Z M439.00,430.00 L440.00,429.00 L441.00,429.00 L442.00,430.00 L442.00,431.00 L443.00,431.00 L444.00,432.00 L444.00,433.00 L443.00,434.00 L436.00,434.00 L435.00,433.00 L435.00,432.00 L436.00,431.00 L439.00,431.00 L439.00,430.00 Z M423.00,422.00 L424.00,421.00 L427.00,421.00 L428.00,422.00 L428.00,427.00 L429.00,427.00 L430.00,428.00 L430.00,431.00 L429.00,432.00 L420.00,432.00 L419.00,431.00 L419.00,426.00 L420.00,425.00 L421.00,425.00 L421.00,424.00 L422.00,423.00 L423.00,423.00 L423.00,422.00 Z M433.00,416.00 L434.00,415.00 L437.00,415.00 L438.00,416.00 L438.00,417.00 L437.00,418.00 L436.00,418.00 L436.00,419.00 L435.00,420.00 L434.00,420.00 L433.00,419.00 L433.00,416.00 Z M449.00,394.00 L450.00,393.00 L453.00,393.00 L454.00,394.00 L454.00,399.00 L453.00,400.00 L452.00,400.00 L452.00,405.00 L451.00,406.00 L448.00,406.00 L448.00,407.00 L447.00,408.00 L444.00,408.00 L443.00,407.00 L443.00,402.00 L442.00,402.00 L441.00,401.00 L441.00,398.00 L442.00,397.00 L445.00,397.00 L446.00,398.00 L446.00,399.00 L449.00,399.00 L449.00,394.00 Z M445.00,390.00 L446.00,389.00 L447.00,389.00 L448.00,390.00 L448.00,393.00 L447.00,394.00 L444.00,394.00 L443.00,393.00 L443.00,392.00 L444.00,391.00 L445.00,391.00 L445.00,390.00 Z M431.00,390.00 L432.00,389.00 L433.00,389.00 L434.00,390.00 L434.00,393.00 L433.00,394.00 L432.00,394.00 L431.00,393.00 L431.00,390.00 Z M453.00,374.00 L454.00,373.00 L457.00,373.00 L458.00,374.00 L458.00,381.00 L457.00,382.00 L456.00,382.00 L455.00,381.00 L455.00,378.00 L454.00,378.00 L453.00,377.00 L453.00,374.00 Z M449.00,354.00 L450.00,353.00 L453.00,353.00 L454.00,354.00 L454.00,355.00 L453.00,356.00 L450.00,356.00 L449.00,355.00 L449.00,354.00 Z M463.00,348.00 L464.00,347.00 L467.00,347.00 L468.00,348.00 L468.00,351.00 L467.00,352.00 L462.00,352.00 L462.00,353.00 L463.00,353.00 L464.00,354.00 L464.00,357.00 L463.00,358.00 L460.00,358.00 L459.00,357.00 L459.00,354.00 L458.00,354.00 L457.00,353.00 L457.00,350.00 L458.00,349.00 L463.00,349.00 L463.00,348.00 Z M447.00,334.00 L448.00,333.00 L453.00,333.00 L454.00,334.00 L454.00,335.00 L453.00,336.00 L452.00,336.00 L452.00,337.00 L451.00,338.00 L450.00,338.00 L450.00,341.00 L449.00,342.00 L448.00,342.00 L448.00,349.00 L447.00,350.00 L446.00,350.00 L446.00,351.00 L445.00,352.00 L438.00,352.00 L438.00,353.00 L437.00,354.00 L434.00,354.00 L433.00,353.00 L433.00,352.00 L428.00,352.00 L428.00,353.00 L427.00,354.00 L424.00,354.00 L424.00,361.00 L423.00,362.00 L422.00,362.00 L421.00,361.00 L421.00,360.00 L420.00,360.00 L419.00,359.00 L419.00,354.00 L420.00,353.00 L421.00,353.00 L421.00,350.00 L422.00,349.00 L423.00,349.00 L423.00,348.00 L424.00,347.00 L433.00,347.00 L433.00,346.00 L434.00,345.00 L435.00,345.00 L436.00,346.00 L436.00,347.00 L439.00,347.00 L439.00,346.00 L440.00,345.00 L441.00,345.00 L441.00,342.00 L442.00,341.00 L445.00,341.00 L445.00,340.00 L446.00,339.00 L447.00,339.00 L447.00,334.00 Z M467.00,332.00 L468.00,331.00 L469.00,331.00 L470.00,332.00 L470.00,335.00 L469.00,336.00 L468.00,336.00 L467.00,335.00 L467.00,332.00 Z M563.00,316.00 L564.00,315.00 L571.00,315.00 L572.00,316.00 L572.00,317.00 L577.00,317.00 L578.00,318.00 L578.00,319.00 L583.00,319.00 L584.00,320.00 L584.00,321.00 L587.00,321.00 L588.00,322.00 L588.00,323.00 L591.00,323.00 L592.00,324.00 L592.00,325.00 L595.00,325.00 L596.00,326.00 L596.00,327.00 L597.00,327.00 L598.00,328.00 L598.00,329.00 L599.00,329.00 L600.00,330.00 L600.00,331.00 L599.00,332.00 L594.00,332.00 L594.00,333.00 L593.00,334.00 L588.00,334.00 L587.00,333.00 L587.00,332.00 L580.00,332.00 L579.00,331.00 L579.00,330.00 L578.00,330.00 L577.00,329.00 L577.00,328.00 L574.00,328.00 L573.00,327.00 L573.00,326.00 L572.00,326.00 L571.00,325.00 L571.00,324.00 L570.00,324.00 L569.00,323.00 L569.00,322.00 L568.00,322.00 L567.00,321.00 L567.00,320.00 L566.00,320.00 L565.00,319.00 L565.00,318.00 L564.00,318.00 L563.00,317.00 L563.00,316.00 Z M433.00,312.00 L434.00,311.00 L437.00,311.00 L438.00,312.00 L438.00,313.00 L437.00,314.00 L434.00,314.00 L433.00,313.00 L433.00,312.00 Z M471.00,308.00 L472.00,307.00 L475.00,307.00 L476.00,308.00 L476.00,309.00 L475.00,310.00 L472.00,310.00 L471.00,309.00 L471.00,308.00 Z M461.00,306.00 L462.00,305.00 L465.00,305.00 L466.00,306.00 L466.00,311.00 L465.00,312.00 L462.00,312.00 L461.00,311.00 L461.00,310.00 L460.00,310.00 L459.00,309.00 L459.00,308.00 L460.00,307.00 L461.00,307.00 L461.00,306.00 Z M455.00,298.00 L456.00,297.00 L459.00,297.00 L460.00,298.00 L460.00,299.00 L461.00,299.00 L462.00,300.00 L462.00,303.00 L461.00,304.00 L456.00,304.00 L456.00,305.00 L455.00,306.00 L450.00,306.00 L449.00,305.00 L449.00,300.00 L450.00,299.00 L455.00,299.00 L455.00,298.00 Z"/>
</g>
</svg>